<svg xmlns="http://www.w3.org/2000/svg" width="589" height="572" viewBox="0 0 589 572" fill="none"><g clip-path="url(#clip0_162_61)"><path d="M397.443 156.232C395.642 160.094 392.795 163.375 389.225 165.701C385.655 168.027 381.504 169.306 377.244 169.393L377.645 163.043C377.645 163.043 387.028 167.268 397.443 156.232Z" fill="black"></path><path d="M538.492 571.308H146.552L197.06 347.319H589L538.492 571.308Z" fill="black"></path><path d="M513.936 571.393H95.7647L149.647 332.422H567.818L513.936 571.393Z" fill="white" stroke="black" stroke-width="2" stroke-miterlimit="10"></path><path d="M290.466 507.556H140.665L174.446 357.724H324.26L290.466 507.556Z" fill="white" stroke="black" stroke-width="2" stroke-miterlimit="10"></path><path d="M533.479 384.021H343.633L349.556 357.724H539.402L533.479 384.021Z" fill="black" stroke="black" stroke-miterlimit="10"></path><path d="M526.73 413.924H336.884L338.85 405.219H528.696L526.73 413.924Z" fill="black" stroke="black" stroke-miterlimit="10"></path><path d="M523.27 429.295H333.412L335.378 420.602H525.224L523.27 429.295Z" fill="black" stroke="black" stroke-miterlimit="10"></path><path d="M519.798 444.677H329.953L331.907 435.984H521.753L519.798 444.677Z" fill="black" stroke="black" stroke-miterlimit="10"></path><path d="M516.327 460.06H326.481L328.435 451.367H518.293L516.327 460.06Z" fill="black" stroke="black" stroke-miterlimit="10"></path><path d="M174.446 357.724L290.466 507.556" stroke="black" stroke-width="2" stroke-miterlimit="10"></path><path d="M324.26 357.724L140.665 507.556" stroke="black" stroke-width="2" stroke-miterlimit="10"></path><path d="M490.193 518.968H326.032C318.943 518.968 314.488 513.213 316.09 506.123L318.008 497.624C319.611 490.534 326.663 484.779 333.788 484.779H497.913C505.014 484.779 509.456 490.534 507.866 497.624L505.936 506.123C504.334 513.213 497.294 518.968 490.193 518.968Z" fill="black" stroke="black" stroke-miterlimit="10"></path><path d="M495.339 507.556H375.29L378.094 495.16H498.143L495.339 507.556Z" fill="white" stroke="black" stroke-miterlimit="10"></path><path d="M340.647 509.741C340.773 509.735 340.899 509.76 341.013 509.813C341.128 509.867 341.228 509.947 341.305 510.046C341.383 510.146 341.435 510.263 341.457 510.388C341.48 510.512 341.473 510.64 341.436 510.761C341.364 511.036 341.208 511.281 340.991 511.464C340.773 511.647 340.505 511.757 340.222 511.781C340.096 511.786 339.97 511.761 339.855 511.708C339.741 511.655 339.64 511.575 339.563 511.475C339.486 511.375 339.434 511.258 339.411 511.134C339.388 511.01 339.396 510.882 339.433 510.761C339.5 510.483 339.654 510.235 339.872 510.051C340.09 509.868 340.362 509.759 340.647 509.741ZM347.772 509.741C347.898 509.735 348.024 509.76 348.138 509.813C348.253 509.867 348.353 509.947 348.431 510.046C348.508 510.146 348.56 510.263 348.583 510.388C348.605 510.512 348.598 510.64 348.561 510.761C348.492 511.037 348.338 511.285 348.12 511.468C347.902 511.651 347.631 511.761 347.347 511.781C347.221 511.786 347.095 511.761 346.98 511.708C346.866 511.655 346.766 511.575 346.688 511.475C346.611 511.375 346.559 511.258 346.536 511.134C346.513 511.01 346.521 510.882 346.558 510.761C346.628 510.485 346.783 510.239 347.001 510.056C347.219 509.873 347.488 509.763 347.772 509.741ZM339.02 492.039L339.117 492.112L340.562 493.411C340.811 493.643 340.977 493.95 341.035 494.286V494.456H354.145C354.396 494.447 354.646 494.499 354.874 494.606C355.102 494.713 355.301 494.873 355.455 495.072C355.609 495.271 355.714 495.504 355.76 495.751C355.807 495.999 355.794 496.254 355.723 496.495V496.592V496.75L354.412 500.465C353.992 501.62 353.269 502.64 352.319 503.418C351.368 504.196 350.225 504.703 349.01 504.885H348.779L341.156 505.516V506.73H350.03C350.156 506.725 350.282 506.749 350.396 506.803C350.511 506.856 350.611 506.936 350.688 507.036C350.766 507.135 350.818 507.253 350.84 507.377C350.863 507.501 350.856 507.629 350.819 507.75C350.749 508.009 350.605 508.243 350.404 508.422C350.204 508.601 349.955 508.717 349.69 508.758H340.695C340.293 508.781 339.898 508.645 339.596 508.379C339.294 508.113 339.109 507.739 339.081 507.337V507.179L339.02 495.038L337.515 493.739C337.426 493.639 337.359 493.523 337.317 493.396C337.275 493.27 337.259 493.136 337.271 493.003C337.282 492.87 337.32 492.741 337.383 492.623C337.446 492.506 337.532 492.402 337.636 492.319C337.795 492.147 337.999 492.025 338.225 491.967C338.451 491.909 338.689 491.917 338.911 491.991L339.02 492.039ZM353.683 496.495H341.071V503.525L348.961 502.881C349.716 502.796 350.431 502.502 351.027 502.032C351.623 501.563 352.076 500.936 352.336 500.223L353.683 496.495Z" fill="white"></path><path d="M430.18 242.882H432.802L430.18 248.491V242.882Z" fill="#BA9F2E"></path><path d="M516.157 331.718C506.762 331.244 486.406 327.323 486.406 327.323C491.103 329.836 499.552 338.759 493.446 338.25C487.34 337.74 477.787 332.179 477.787 332.179C465.26 335.627 459.3 332.968 455.707 328.537C452.114 324.105 455.707 314.283 455.707 314.283L440.619 257.415L438.191 258.119L434.781 245.347L434.113 242.846H486.308C486.303 242.91 486.303 242.975 486.308 243.04C486.308 243.04 486.308 243.161 486.308 243.21C486.303 243.258 486.303 243.307 486.308 243.356C486.308 243.453 486.308 243.55 486.308 243.623C486.308 243.696 486.308 243.793 486.308 243.865C486.308 243.938 486.308 244.108 486.308 244.108L476.488 246.961L486.685 317.877H503.217C503.217 317.877 509.505 317.379 514.275 323.777C514.588 324.167 514.879 324.572 515.149 324.992C525.237 328.258 524.872 332.143 516.157 331.718Z" fill="white"></path><path d="M328.265 376.117L233.379 441.557C233.379 441.557 225.44 447.312 221.24 441.788C220.709 441.083 220.272 440.312 219.941 439.493L300.371 382.091C288.682 360.795 316.904 350.439 316.904 350.439L328.265 376.117Z" fill="white"></path><path d="M248.418 378.036C246.67 376.944 245.043 375.67 243.563 374.235C245.378 375.229 247.018 376.512 248.418 378.036Z" fill="#68673E"></path><path d="M299.218 382.892L221.993 438C221.755 438.168 221.477 438.27 221.187 438.296C220.897 438.322 220.605 438.27 220.342 438.147C220.078 438.024 219.851 437.833 219.685 437.594C219.519 437.355 219.419 437.076 219.395 436.786C219.371 436.475 219.371 436.162 219.395 435.851C219.446 435.264 219.547 434.683 219.699 434.115C219.976 433.074 220.436 432.092 221.058 431.213L246.622 388.125L249.839 382.71L250.882 380.961L252.922 377.525L255.689 372.839L254.937 368.092C254.621 366.093 254.997 364.046 256.004 362.291C257.011 360.535 258.587 359.176 260.472 358.44L310.58 338.808L311.611 338.407L316.236 348.885C316.417 349.297 316.427 349.765 316.266 350.185C316.105 350.605 315.784 350.945 315.374 351.131C309.742 353.632 291.267 363.442 299.752 380.889C299.899 381.234 299.926 381.619 299.829 381.982C299.732 382.345 299.517 382.665 299.218 382.892Z" fill="black"></path><path d="M219.978 439.493C220.308 440.312 220.745 441.083 221.277 441.788C225.44 447.312 233.415 441.557 233.415 441.557L327.136 376.919C327.464 376.695 327.702 376.363 327.811 375.982C327.919 375.6 327.891 375.193 327.731 374.83L316.976 350.439L311.66 338.371L310.628 338.772L260.533 358.404C258.635 359.142 257.049 360.51 256.039 362.278C255.03 364.046 254.658 366.107 254.985 368.116L255.641 372.232C255.698 372.626 255.621 373.028 255.422 373.373L252.995 377.526L250.955 380.962L249.911 382.71L246.695 388.125L221.143 431.201C220.186 432.571 219.612 434.172 219.48 435.839C219.456 436.15 219.456 436.463 219.48 436.774C219.507 437.716 219.704 438.646 220.063 439.518" stroke="black" stroke-width="2" stroke-miterlimit="10"></path><path d="M242.677 363.539C235.078 364.559 241.22 374.673 251.174 379.602" stroke="black" stroke-width="2" stroke-miterlimit="10"></path><path d="M252.91 377.489C252.91 377.489 250.288 362.507 242.677 363.539" stroke="black" stroke-width="2" stroke-miterlimit="10"></path><path d="M250.882 380.925C250.882 380.925 242.301 369.124 236.887 374.988C231.473 380.852 244.74 382.831 249.839 382.673" stroke="black" stroke-width="2" stroke-miterlimit="10"></path><path d="M316.94 350.439C316.94 350.439 289.811 360.395 299.764 380.852C299.933 381.21 299.969 381.616 299.867 381.999C299.764 382.381 299.53 382.714 299.206 382.941L219.978 439.493" stroke="black" stroke-width="2" stroke-miterlimit="10"></path><path d="M486.381 243.902C486.381 243.829 486.381 243.756 486.381 243.659C486.381 243.562 486.381 243.489 486.381 243.392C486.375 243.344 486.375 243.295 486.381 243.246C486.381 243.246 486.381 243.137 486.381 243.076V242.882C486.381 242.676 486.308 242.445 486.26 242.19C486.211 241.935 486.199 241.85 486.175 241.668V241.498C486.175 241.316 486.114 241.134 486.078 240.94C486.082 240.863 486.082 240.786 486.078 240.709C486.078 240.531 486.041 240.337 485.969 240.126C485.969 240.029 485.969 239.932 485.908 239.835C485.847 239.738 485.847 239.531 485.811 239.361C485.689 238.778 485.556 238.147 485.398 237.491C485.337 237.249 485.277 236.982 485.216 236.714C485.216 236.714 485.216 236.714 485.216 236.654C485.119 236.29 485.034 235.913 484.937 235.525C484.84 235.136 484.84 235.112 484.779 234.905C484.621 234.298 484.439 233.691 484.269 233.011L483.905 231.797V231.676C483.711 231.008 483.492 230.316 483.262 229.6C483.152 229.248 483.031 228.884 482.91 228.519C482.788 228.155 482.667 227.779 482.533 227.39C482.4 227.002 482.206 226.443 482.036 225.958C481.866 225.472 481.756 225.193 481.611 224.743C481.465 224.294 481.307 223.942 481.15 223.529C480.85 222.72 480.522 221.911 480.166 221.101C480.057 220.822 479.936 220.543 479.814 220.276C479.462 219.438 479.086 218.6 478.698 217.75L478.115 216.536C477.087 214.375 475.93 212.169 474.643 209.919C474.303 209.324 473.951 208.705 473.599 208.147C473.187 207.479 472.774 206.799 472.386 206.131C471.269 204.383 470.055 202.639 468.744 200.899C468.416 200.461 468.089 200.024 467.749 199.599L466.984 198.64C466.838 198.446 466.68 198.264 466.523 198.07C466.365 197.875 466.074 197.523 465.843 197.244C465.054 196.321 464.253 195.399 463.415 194.488C463.051 194.083 462.687 193.679 462.323 193.274C461.497 192.412 460.648 191.562 459.774 190.737C459.349 190.324 458.912 189.923 458.475 189.522L457.14 188.308L455.768 187.094L454.36 185.953C453.619 185.37 452.867 184.739 452.09 184.241C451.313 183.743 450.536 183.136 449.735 182.59L448.643 181.874C448.4 181.704 448.145 181.546 447.902 181.4L446.688 180.623C444.437 179.256 442.115 178.008 439.733 176.884C439.126 176.592 438.519 176.313 437.876 176.034C437.233 175.755 436.868 175.585 436.359 175.378L435.97 175.22L434.392 174.589C433.409 174.201 432.414 173.836 431.394 173.484L430.362 173.144L429.622 172.901L427.886 172.367C425.604 171.687 423.233 171.088 420.773 170.57L418.988 170.218C418.309 170.085 417.605 169.951 416.913 169.842L414.412 169.453C413.477 169.32 412.531 169.198 411.584 169.101H411.475C410.52 168.988 409.549 168.891 408.561 168.81H408.489C407.493 168.725 406.498 168.652 405.49 168.591C404.459 168.591 403.427 168.482 402.371 168.458C401.849 168.458 401.327 168.458 400.793 168.458H398.207C398.207 168.458 396.993 179.615 376.54 178.438L376.831 173.861L305.955 181.352V200.219L312.291 201.056L318.36 202.574L319.271 202.89C320.12 203.217 320.982 203.57 321.82 203.946C322.245 204.128 322.669 204.334 323.094 204.541L323.252 204.614L324.539 205.281C324.806 205.415 325.061 205.561 325.316 205.706C325.571 205.852 325.85 205.998 326.105 206.156C326.833 206.581 327.537 207.018 328.241 207.491L328.884 207.928C329.637 208.45 330.39 208.997 331.118 209.567C331.543 209.895 331.955 210.223 332.332 210.575L332.429 210.648L333.57 211.643C333.898 211.935 334.225 212.226 334.541 212.542C335.427 213.367 336.301 214.254 337.151 215.176C337.539 215.589 337.915 216.002 338.292 216.39C338.68 216.828 339.056 217.277 339.421 217.726C339.785 218.175 340.161 218.637 340.513 219.11L340.634 219.268L341.084 219.875C341.338 220.191 341.569 220.518 341.812 220.858L342.613 222.072C343.657 223.61 344.656 225.229 345.611 226.929C352.13 238.536 356.766 246.816 360.08 252.728L417.629 275.153L430.156 248.443L432.79 242.834L433.603 241.11L434.064 242.834L434.732 245.335L438.143 258.107L440.571 257.403L454.809 253.263L476.537 246.949L486.357 244.096C486.357 244.096 486.393 244.06 486.381 243.902ZM417.192 214.606C414.036 222.461 408.124 232.526 399.166 229.697C390.208 226.868 391.361 215.747 393.425 207.698C394.177 204.738 395.142 201.837 396.314 199.017L420.057 206.071C419.306 208.977 418.357 211.829 417.216 214.606H417.192Z" fill="black"></path><path d="M440.619 257.451L454.87 253.311L440.619 257.451Z" fill="#68673E"></path><path d="M399.19 229.685C408.149 232.526 414.06 222.461 417.216 214.594L393.449 207.698C391.385 215.747 390.342 226.892 399.19 229.685Z" fill="black"></path><path d="M393.449 207.697L417.216 214.594C418.336 211.828 419.265 208.988 419.996 206.095L396.338 199.041C395.167 201.853 394.202 204.746 393.449 207.697Z" fill="black"></path><path d="M431.285 146.313C425.968 152.59 416.876 152.383 407.408 149.53C407.016 150.71 406.393 151.799 405.575 152.735H367.946C366.914 147.163 369.864 137.523 371.357 133.164C371.842 131.743 372.182 130.881 372.182 130.881C372.945 125.766 375.475 121.08 379.332 117.636C385.62 112.354 399.87 111.383 405.976 124.762C405.976 124.762 417.823 110.193 427.631 116.458C437.439 122.723 437.317 139.186 431.285 146.313Z" fill="black"></path><path d="M313.954 333.43L280.16 345.194L303.782 295.525L306.367 297.638L313.954 333.43Z" fill="white"></path><path d="M270.122 213.489C243.502 193.262 249.487 139.028 249.487 139.028C220.597 139.028 221.07 127.98 221.07 127.98H284.494C288.269 186.961 305.955 181.352 305.955 181.352L376.904 173.836L376.613 178.413C397.042 179.628 398.28 168.434 398.28 168.434H400.38C400.914 168.434 401.436 168.434 401.958 168.434C403.014 168.434 404.058 168.506 405.078 168.567C406.097 168.628 407.093 168.701 408.076 168.786H408.149C409.128 168.867 410.099 168.964 411.062 169.077H411.171C412.13 169.174 413.065 169.296 413.999 169.429L416.5 169.818L418.576 170.194L420.36 170.546C422.788 171.072 425.159 171.671 427.473 172.343L429.209 172.877L429.949 173.12L430.981 173.46C432.001 173.812 432.996 174.176 433.979 174.565L435.557 175.196L435.946 175.354C436.456 175.56 436.965 175.779 437.463 176.01C437.961 176.24 438.677 176.568 439.32 176.859C441.702 177.984 444.024 179.232 446.276 180.599L447.49 181.376C447.732 181.522 447.987 181.679 448.23 181.849C448.473 182.019 448.97 182.323 449.322 182.566C450.124 183.1 450.913 183.658 451.677 184.217C452.442 184.775 453.207 185.346 453.947 185.929C454.421 186.305 454.894 186.681 455.355 187.07C455.817 187.458 456.278 187.835 456.727 188.284L458.062 189.498C458.499 189.887 458.936 190.287 459.361 190.712C460.235 191.538 461.085 192.388 461.91 193.25C462.29 193.638 462.655 194.043 463.003 194.464C463.852 195.374 464.653 196.297 465.43 197.22C465.661 197.499 465.891 197.766 466.11 198.045C466.328 198.325 466.426 198.422 466.571 198.616C466.717 198.81 467.093 199.26 467.336 199.575C467.579 199.891 468.016 200.437 468.331 200.874C469.642 202.614 470.856 204.359 471.973 206.107C472.41 206.787 472.835 207.455 473.187 208.122C473.551 208.717 473.891 209.337 474.231 209.895C475.517 212.137 476.674 214.343 477.702 216.512C477.909 216.925 478.103 217.325 478.285 217.726C478.673 218.576 479.05 219.414 479.402 220.251C479.523 220.518 479.644 220.798 479.754 221.077C480.11 221.886 480.437 222.696 480.737 223.505C480.895 223.906 481.052 224.306 481.198 224.719C481.344 225.132 481.489 225.496 481.623 225.933C481.756 226.37 481.963 226.892 482.121 227.366C482.278 227.839 482.388 228.131 482.497 228.495C482.606 228.859 482.74 229.223 482.849 229.576C483.08 230.292 483.298 230.984 483.492 231.652V231.773C483.626 232.198 483.747 232.623 483.856 232.987C484.034 233.643 484.204 234.274 484.366 234.881C484.427 235.088 484.475 235.294 484.524 235.5C484.573 235.707 484.718 236.265 484.803 236.629C484.803 236.629 484.803 236.629 484.803 236.69C484.876 236.957 484.937 237.212 484.985 237.467C485.143 238.135 485.277 238.754 485.398 239.337C485.398 239.495 485.471 239.653 485.495 239.81C485.519 239.968 485.495 240.005 485.556 240.102L485.665 240.685C485.67 240.761 485.67 240.838 485.665 240.915C485.665 241.109 485.738 241.304 485.762 241.474V241.644C485.762 241.826 485.823 242.008 485.847 242.166C485.871 242.324 485.932 242.651 485.969 242.858C485.963 242.922 485.963 242.987 485.969 243.052C485.969 243.052 485.969 243.173 485.969 243.222C485.969 243.271 485.969 243.319 485.969 243.368C485.969 243.416 485.969 243.562 485.969 243.635C485.969 243.708 485.969 243.817 485.969 243.878C485.969 243.938 485.969 244.12 485.969 244.12L476.148 246.974L454.421 253.287L437.718 258.143L434.307 245.371L433.64 242.87L433.178 241.146L432.365 242.87L429.731 248.479L417.204 275.189L359.631 252.741" stroke="black" stroke-width="2" stroke-miterlimit="10"></path><path d="M252.303 182.711C252.303 182.711 195.786 200 232.165 276.67" stroke="black" stroke-width="2" stroke-miterlimit="10"></path><path d="M305.894 181.315V200.182" stroke="black" stroke-miterlimit="10"></path><path d="M375.144 132.982C373.251 131.695 372.17 130.881 372.17 130.881C372.933 125.766 375.463 121.08 379.32 117.636C385.607 112.354 399.858 111.383 405.964 124.762C405.964 124.762 417.811 110.193 427.619 116.458C437.427 122.723 437.33 139.186 431.26 146.313C425.944 152.59 416.852 152.383 407.384 149.53C404.54 148.66 401.748 147.63 399.021 146.446C394.442 144.427 389.983 142.145 385.668 139.611C381.274 137.049 377.584 134.633 375.193 132.982" stroke="black" stroke-miterlimit="10" stroke-linecap="round"></path><path d="M408.088 146.665C407.953 147.639 407.725 148.599 407.408 149.53C407.016 150.71 406.393 151.799 405.575 152.735C404.663 153.691 403.537 154.415 402.29 154.85C401.042 155.285 399.71 155.417 398.401 155.236C390.439 163.735 383.119 164.949 377.645 163.043C372.17 161.137 368.699 156.45 367.995 152.808C367.995 152.808 367.995 152.808 367.995 152.735C366.963 147.163 369.912 137.523 371.405 133.164C371.891 131.743 372.231 130.881 372.231 130.881L384.855 123.743C384.855 123.743 384.357 128.733 389.71 133.977C392.451 136.529 395.635 138.558 399.105 139.963C403.973 135.932 409.241 138.397 408.088 146.665Z" fill="white" stroke="black" stroke-width="2" stroke-miterlimit="10" stroke-linecap="round"></path><path d="M399.19 139.963C398.024 140.973 397.025 142.162 396.229 143.484" stroke="black" stroke-width="2" stroke-miterlimit="10" stroke-linecap="round"></path><path d="M404.956 142.622L397.443 147.478" stroke="black" stroke-width="2" stroke-miterlimit="10" stroke-linecap="round"></path><path d="M404.956 146.155L402.407 145.05" stroke="black" stroke-width="2" stroke-miterlimit="10" stroke-linecap="round"></path><path d="M389.795 134.002C387.698 133.877 385.618 133.556 383.58 133.043" stroke="black" stroke-width="2" stroke-miterlimit="10" stroke-linecap="round"></path><path d="M371.393 133.164C372.959 133.365 374.549 133.224 376.054 132.751" stroke="black" stroke-width="2" stroke-miterlimit="10" stroke-linecap="round"></path><path d="M382.087 154.993C383.411 154.855 384.673 154.362 385.741 153.567C386.809 152.773 387.643 151.705 388.157 150.477" stroke="black" stroke-width="2" stroke-miterlimit="10" stroke-linecap="round"></path><path d="M377.778 141.845C377.778 141.845 375.071 146.07 375.435 148.498C375.666 150.064 377.463 151.084 379.89 149.433" stroke="black" stroke-width="2" stroke-miterlimit="10" stroke-linecap="round"></path><path d="M373.263 137.255L374.574 139.259L373.323 143.775" stroke="black" stroke-width="2" stroke-miterlimit="10" stroke-linecap="round"></path><path d="M384.539 137.255L385.705 139.417L384.879 144.115" stroke="black" stroke-width="2" stroke-miterlimit="10" stroke-linecap="round"></path><path d="M377.657 163.043L376.844 173.8" stroke="black" stroke-width="2" stroke-miterlimit="10"></path><path d="M398.232 168.397L397.443 156.232" stroke="black" stroke-width="2" stroke-miterlimit="10"></path><path d="M306.38 297.638L313.966 333.442L280.16 345.206" stroke="black" stroke-width="2" stroke-miterlimit="10"></path><path d="M259.586 360.055L257.316 366.028" stroke="black" stroke-miterlimit="10"></path><path d="M221.082 351.629L215.814 367.594" stroke="black" stroke-miterlimit="10"></path><path d="M305.263 336.465L306.319 340.787" stroke="black" stroke-miterlimit="10"></path><path d="M496.274 321.847C496.274 321.847 500.183 321.058 512.71 324.348C513.62 324.591 514.47 324.834 515.247 325.077C525.237 328.27 524.872 332.143 516.157 331.718C506.762 331.244 486.406 327.323 486.406 327.323C491.103 329.836 499.551 338.759 493.446 338.25C487.34 337.74 477.787 332.179 477.787 332.179C465.26 335.627 459.3 332.968 455.707 328.537C452.114 324.105 455.707 314.283 455.707 314.283L440.619 257.415" stroke="black" stroke-width="2" stroke-miterlimit="10"></path><path d="M515.247 325.077C514.976 324.657 514.685 324.252 514.373 323.862C509.602 317.464 503.314 317.962 503.314 317.962H486.818L476.622 247.046" stroke="black" stroke-width="2" stroke-miterlimit="10"></path><path d="M502.538 317.913L514.373 323.814" stroke="black" stroke-miterlimit="10"></path><path d="M215.899 332.422L279.117 347.416" stroke="black" stroke-miterlimit="10" stroke-dasharray="3 3"></path><path d="M311.004 319.504L289.483 325.611" stroke="black" stroke-miterlimit="10" stroke-dasharray="3 3"></path><path d="M321.795 119.991H192.423V127.506H321.795V119.991Z" fill="black"></path><path d="M264.465 66.6071H172.941L193.589 119.991H285.125L264.465 66.6071Z" fill="black"></path><path d="M200.398 119.991H291.923L271.882 66.6071H180.346L200.398 119.991Z" fill="white" stroke="black" stroke-width="2" stroke-miterlimit="10"></path><path d="M202.778 71.0749H190.833C190.475 71.0446 190.116 71.1124 189.794 71.2709C189.471 71.4294 189.198 71.6726 189.004 71.9746C188.809 72.2766 188.7 72.6259 188.689 72.985C188.678 73.3441 188.764 73.6995 188.94 74.013L194.111 87.8659C194.45 88.6894 195.012 89.4012 195.736 89.9206C196.459 90.44 197.313 90.7461 198.201 90.804H210.158C210.515 90.8319 210.873 90.7624 211.193 90.603C211.514 90.4435 211.785 90.2 211.978 89.8984C212.171 89.5969 212.279 89.2486 212.29 88.8906C212.3 88.5327 212.214 88.1785 212.039 87.8659L206.868 74.0737C206.539 73.2389 205.98 72.5144 205.256 71.9838C204.532 71.4532 203.673 71.1381 202.778 71.0749Z" fill="black"></path><path d="M191.974 73.1025H203.13C203.545 73.1336 203.942 73.2826 204.276 73.5321C204.609 73.7816 204.864 74.1212 205.011 74.5108L209.867 87.4046C209.949 87.5483 209.99 87.7118 209.986 87.8773C209.983 88.0429 209.934 88.2043 209.845 88.3441C209.756 88.484 209.631 88.597 209.483 88.6711C209.335 88.7451 209.17 88.7774 209.005 88.7644H197.849C197.441 88.7366 197.05 88.5943 196.719 88.3537C196.388 88.1132 196.132 87.7842 195.98 87.4046L191.125 74.5108C191.03 74.3672 190.977 74.1996 190.974 74.0274C190.97 73.8552 191.016 73.6856 191.105 73.5381C191.194 73.3907 191.322 73.2715 191.476 73.1944C191.63 73.1173 191.803 73.0854 191.974 73.1025Z" fill="white"></path><path d="M208.337 86.9189C208.319 86.8701 208.29 86.826 208.252 86.7902C208.214 86.7545 208.168 86.7279 208.119 86.7125L207.075 86.4333C207.026 86.4164 206.981 86.3893 206.943 86.3537C206.905 86.3181 206.876 86.2749 206.856 86.2269L202.863 75.5914C202.85 75.5747 202.841 75.5553 202.838 75.5347C202.834 75.5141 202.835 75.4929 202.841 75.4728C202.847 75.4527 202.857 75.4343 202.872 75.4191C202.886 75.4038 202.904 75.3921 202.923 75.385L203.761 75.1179C203.779 75.109 203.795 75.0964 203.808 75.081C203.821 75.0655 203.831 75.0475 203.837 75.0281C203.842 75.0086 203.844 74.9882 203.841 74.9682C203.839 74.9481 203.832 74.9288 203.822 74.9115L203.737 74.6565C203.714 74.5994 203.676 74.5498 203.627 74.5133C203.577 74.4768 203.519 74.4549 203.457 74.4501H198.456C198.004 74.399 197.546 74.4597 197.123 74.6269C196.7 74.7942 196.324 75.0628 196.029 75.4093C195.802 75.8246 195.684 76.29 195.684 76.763C195.684 77.236 195.802 77.7014 196.029 78.1167C196.301 78.8838 196.74 79.5806 197.315 80.1564C197.805 80.6522 198.392 81.0408 199.039 81.2976C199.096 81.3229 199.144 81.3636 199.178 81.4152C199.213 81.4668 199.232 81.5271 199.233 81.589L198.396 86.3361C198.393 86.3604 198.383 86.3834 198.368 86.4027C198.353 86.4219 198.333 86.4367 198.311 86.4454L197.34 86.7004C197.319 86.7068 197.301 86.7176 197.285 86.732C197.269 86.7464 197.257 86.7641 197.249 86.7838C197.241 86.8034 197.237 86.8246 197.238 86.8459C197.239 86.8671 197.245 86.8879 197.255 86.9068L197.352 87.1375C197.371 87.1977 197.408 87.2507 197.458 87.2896C197.508 87.3286 197.568 87.3517 197.631 87.356H201.272C201.288 87.3577 201.305 87.3562 201.32 87.3516C201.335 87.347 201.35 87.3394 201.362 87.3292C201.374 87.319 201.385 87.3065 201.392 87.2924C201.4 87.2782 201.404 87.2627 201.406 87.2467L202.159 81.844C202.164 81.8129 202.181 81.7849 202.205 81.7649C202.23 81.7449 202.261 81.7342 202.292 81.7347H202.559C202.622 81.74 202.682 81.7619 202.733 81.7982C202.784 81.8345 202.825 81.8838 202.85 81.9411L204.441 86.1905C204.453 86.2097 204.46 86.2316 204.463 86.2543C204.465 86.277 204.462 86.2999 204.453 86.3212C204.445 86.3424 204.432 86.3615 204.415 86.3767C204.398 86.392 204.378 86.403 204.356 86.409L203.142 86.7125C203.122 86.719 203.103 86.7298 203.087 86.7442C203.072 86.7586 203.059 86.7762 203.051 86.7959C203.043 86.8156 203.039 86.8368 203.04 86.858C203.041 86.8793 203.047 86.9001 203.057 86.9189L203.142 87.1496C203.167 87.2084 203.207 87.2595 203.258 87.2979C203.309 87.3363 203.37 87.3605 203.433 87.3681H208.373C208.483 87.3681 208.531 87.271 208.495 87.1496L208.337 86.9189ZM202.159 80.8484H202.013C201.598 80.8412 201.188 80.7632 200.799 80.6177C200.413 80.4536 200.057 80.2281 199.743 79.95C199.151 79.4046 198.698 78.7263 198.42 77.971C198.222 77.4998 198.146 76.9859 198.201 76.4777C198.22 76.2938 198.282 76.1171 198.384 75.9627C198.485 75.8083 198.622 75.6809 198.784 75.5914C199.162 75.4108 199.581 75.3353 199.998 75.3728H200.107C200.168 75.3802 200.225 75.403 200.274 75.4392C200.323 75.4754 200.362 75.5236 200.386 75.5792L202.268 80.5813C202.316 80.7391 202.268 80.8363 202.159 80.8363V80.8484Z" fill="black"></path><path d="M269.503 78.3595H214.37L211.882 71.7184H267.015L269.503 78.3595Z" fill="black"></path><path d="M274.164 90.7434H219.031L216.531 84.1022H271.664L274.164 90.7434Z" fill="black"></path><path d="M277.806 100.444H198.857L197.437 96.6317H276.373L277.806 100.444Z" fill="black"></path><path d="M280.61 107.911H201.661L200.229 104.098H279.177L280.61 107.911Z" fill="black"></path><path d="M283.414 115.377H204.465L203.033 111.565H281.981L283.414 115.377Z" fill="black"></path><path d="M266.189 406.676L155.061 437.223C155.061 437.223 145.666 440.04 143.554 433.459C143.285 432.617 143.126 431.744 143.081 430.861L237.979 403.143C233.949 379.189 264.016 378.703 264.016 378.703L266.189 406.676Z" fill="white"></path><path d="M190.166 382.212C188.894 380.606 187.791 378.873 186.876 377.04C188.239 378.579 189.35 380.325 190.166 382.212Z" fill="#68673E"></path><path d="M236.523 403.532L145.484 430.145C145.2 430.231 144.897 430.237 144.609 430.164C144.321 430.092 144.058 429.942 143.849 429.731C143.639 429.52 143.491 429.256 143.42 428.968C143.349 428.679 143.357 428.377 143.445 428.093C143.522 427.788 143.628 427.492 143.76 427.207C143.996 426.668 144.281 426.152 144.61 425.665C145.215 424.772 145.976 423.994 146.856 423.37L185.177 391.111L190.032 387.056L191.586 385.745L194.645 383.171L198.808 379.662L199.658 374.94C200.017 372.949 201.046 371.141 202.574 369.816C204.102 368.491 206.037 367.728 208.058 367.655L261.831 365.615H262.936L263.859 377.028C263.892 377.476 263.748 377.92 263.457 378.263C263.167 378.606 262.753 378.821 262.305 378.861C256.163 379.383 235.491 382.503 237.761 401.808C237.785 402.194 237.675 402.577 237.449 402.891C237.224 403.205 236.896 403.431 236.523 403.532Z" fill="black"></path><path d="M143.081 430.861C143.126 431.744 143.285 432.617 143.554 433.459C145.666 440.04 155.061 437.223 155.061 437.223L264.842 407.04C265.217 406.93 265.543 406.693 265.764 406.37C265.985 406.047 266.088 405.658 266.056 405.268L263.931 378.703L262.875 365.555H261.771L208.009 367.582C205.987 367.659 204.05 368.422 202.519 369.746C200.988 371.07 199.953 372.876 199.585 374.867L198.845 378.97C198.776 379.358 198.574 379.71 198.274 379.966L194.572 383.086L191.513 385.66L189.959 386.971L185.104 391.026L146.795 423.285C145.915 423.909 145.155 424.687 144.549 425.58C144.215 426.064 143.931 426.58 143.7 427.122C143.567 427.407 143.462 427.703 143.384 428.008C143.099 428.906 142.98 429.848 143.032 430.788" stroke="black" stroke-width="2" stroke-miterlimit="10"></path><path d="M189.522 366.611C182.009 365.081 184.485 376.652 192.254 384.567" stroke="black" stroke-miterlimit="10"></path><path d="M194.596 383.159C194.596 383.159 197.024 368.141 189.522 366.611" stroke="black" stroke-miterlimit="10"></path><path d="M191.537 385.733C191.537 385.733 187.337 371.759 180.285 375.522C173.233 379.286 185.14 385.502 189.996 387.044" stroke="black" stroke-miterlimit="10"></path><path d="M263.956 378.703C263.956 378.703 235.066 379.165 237.724 401.771C237.768 402.168 237.671 402.567 237.448 402.898C237.226 403.229 236.894 403.471 236.51 403.58L143.044 430.885" stroke="black" stroke-miterlimit="10"></path><path d="M259.586 360.055L221.082 351.629L215.814 367.594L257.316 366.028L259.586 360.055Z" fill="white" stroke="black" stroke-width="2" stroke-miterlimit="10"></path><path d="M318.312 180.004V181.825" stroke="white" stroke-miterlimit="10"></path><path d="M318.312 185.601V198.822" stroke="white" stroke-miterlimit="10" stroke-dasharray="3.11 3.11"></path><path d="M318.312 200.716V202.538" stroke="white" stroke-miterlimit="10"></path><path d="M434.744 245.383L483.589 231.518" stroke="white" stroke-miterlimit="10" stroke-dasharray="3 3"></path><path d="M355.613 182.711C355.613 182.711 336.981 191.064 342.613 212.651L340.622 219.316" stroke="white" stroke-miterlimit="10"></path><path d="M396.338 199.017L420.057 206.071C420.057 206.071 413.502 234.201 399.251 229.685C385.001 225.168 396.338 199.017 396.338 199.017Z" stroke="white" stroke-miterlimit="10"></path><path d="M393.449 207.698L417.228 214.606" stroke="white" stroke-miterlimit="10" stroke-dasharray="3 3"></path><path d="M368.152 267.322C368.152 267.322 367.57 266.108 361.549 255.375C361.088 254.537 352.117 238.499 345.599 226.905C324.454 189.267 281.265 192.121 254.439 230.668C227.613 269.216 211.675 349.565 211.675 349.565L221.082 351.629L259.574 360.043L271.821 362.726L303.77 295.477C303.77 295.477 339.481 325.55 364.389 330.249C389.298 334.947 400.805 308.395 412.567 273.125L358.442 249.754L368.152 267.322Z" fill="white" stroke="black" stroke-width="2" stroke-miterlimit="10"></path><path d="M303.77 295.477C303.77 295.477 295.904 286.978 296.96 279.694C298.016 272.409 306.246 272.288 307.654 278.747C308.747 283.858 303.77 295.477 303.77 295.477Z" stroke="black" stroke-width="2" stroke-miterlimit="10"></path><path d="M215.207 333.879L279.117 347.416" stroke="black" stroke-miterlimit="10" stroke-dasharray="3 3"></path><circle cx="556" cy="139" r="6" stroke="black" stroke-width="2"></circle></g><circle cx="71" cy="146" r="15" stroke="black" stroke-width="2"></circle><circle cx="9.5" cy="9.5" r="8.5" stroke="black" stroke-width="2"></circle><defs><clipPath id="clip0_162_61"><rect width="494" height="506" fill="white" transform="translate(95 66)"></rect></clipPath></defs></svg>